<svg xmlns="http://www.w3.org/2000/svg" width="1000" height="260" viewBox="0 0 1000 260" role="img" aria-label="Mehemud Azad — AI researcher, former DevOps and backend engineer">
  <defs>
    <linearGradient id="bg" x1="0" y1="0" x2="0" y2="1">
      <stop offset="0" stop-color="#0d1117"/>
      <stop offset="1" stop-color="#0a0c10"/>
    </linearGradient>
  </defs>

  <rect width="1000" height="260" fill="url(#bg)"/>
  <rect width="1000" height="3" fill="#3fb950"/>

  <g>
    <rect x="606" y="33" width="20" height="20" rx="5" fill="#3fb950" fill-opacity="0.09"/>
    <rect x="635" y="33" width="20" height="20" rx="5" fill="#3fb950" fill-opacity="0.09"/>
    <rect x="664" y="33" width="20" height="20" rx="5" fill="#3fb950" fill-opacity="0.47"/>
    <rect x="693" y="33" width="20" height="20" rx="5" fill="#3fb950" fill-opacity="0.47"/>
    <rect x="722" y="33" width="20" height="20" rx="5" fill="#3fb950" fill-opacity="0.26"/>
    <rect x="751" y="33" width="20" height="20" rx="5" fill="#3fb950" fill-opacity="0.09"/>
    <rect x="780" y="33" width="20" height="20" rx="5" fill="#3fb950" fill-opacity="0.09"/>
    <rect x="809" y="33" width="20" height="20" rx="5" fill="#3fb950" fill-opacity="1.0"/>
    <rect x="838" y="33" width="20" height="20" rx="5" fill="#3fb950" fill-opacity="0.47"/>
    <rect x="867" y="33" width="20" height="20" rx="5" fill="#3fb950" fill-opacity="0.47"/>
    <rect x="896" y="33" width="20" height="20" rx="5" fill="#3fb950" fill-opacity="0.09"/>
    <rect x="925" y="33" width="20" height="20" rx="5" fill="#3fb950" fill-opacity="0.09"/>
    <rect x="954" y="33" width="20" height="20" rx="5" fill="#3fb950" fill-opacity="0.26"/>
    <rect x="606" y="62" width="20" height="20" rx="5" fill="#3fb950" fill-opacity="0.09"/>
    <rect x="635" y="62" width="20" height="20" rx="5" fill="#3fb950" fill-opacity="0.09"/>
    <rect x="664" y="62" width="20" height="20" rx="5" fill="#3fb950" fill-opacity="0.09"/>
    <rect x="693" y="62" width="20" height="20" rx="5" fill="#3fb950" fill-opacity="0.7"/>
    <rect x="722" y="62" width="20" height="20" rx="5" fill="#3fb950" fill-opacity="0.09"/>
    <rect x="751" y="62" width="20" height="20" rx="5" fill="#3fb950" fill-opacity="0.09"/>
    <rect x="780" y="62" width="20" height="20" rx="5" fill="#3fb950" fill-opacity="0.26"/>
    <rect x="809" y="62" width="20" height="20" rx="5" fill="#3fb950" fill-opacity="0.09"/>
    <rect x="838" y="62" width="20" height="20" rx="5" fill="#3fb950" fill-opacity="0.09"/>
    <rect x="867" y="62" width="20" height="20" rx="5" fill="#3fb950" fill-opacity="0.09"/>
    <rect x="896" y="62" width="20" height="20" rx="5" fill="#3fb950" fill-opacity="0.09"/>
    <rect x="925" y="62" width="20" height="20" rx="5" fill="#3fb950" fill-opacity="0.09"/>
    <rect x="954" y="62" width="20" height="20" rx="5" fill="#3fb950" fill-opacity="1.0"/>
    <rect x="606" y="91" width="20" height="20" rx="5" fill="#3fb950" fill-opacity="0.26"/>
    <rect x="635" y="91" width="20" height="20" rx="5" fill="#3fb950" fill-opacity="0.26"/>
    <rect x="664" y="91" width="20" height="20" rx="5" fill="#3fb950" fill-opacity="0.09"/>
    <rect x="693" y="91" width="20" height="20" rx="5" fill="#3fb950" fill-opacity="0.26"/>
    <rect x="722" y="91" width="20" height="20" rx="5" fill="#3fb950" fill-opacity="0.09"/>
    <rect x="751" y="91" width="20" height="20" rx="5" fill="#3fb950" fill-opacity="0.26"/>
    <rect x="780" y="91" width="20" height="20" rx="5" fill="#3fb950" fill-opacity="0.09"/>
    <rect x="809" y="91" width="20" height="20" rx="5" fill="#3fb950" fill-opacity="0.09"/>
    <rect x="838" y="91" width="20" height="20" rx="5" fill="#3fb950" fill-opacity="0.47"/>
    <rect x="867" y="91" width="20" height="20" rx="5" fill="#3fb950" fill-opacity="0.09"/>
    <rect x="896" y="91" width="20" height="20" rx="5" fill="#3fb950" fill-opacity="0.09"/>
    <rect x="925" y="91" width="20" height="20" rx="5" fill="#3fb950" fill-opacity="0.26"/>
    <rect x="954" y="91" width="20" height="20" rx="5" fill="#3fb950" fill-opacity="0.7"/>
    <rect x="606" y="120" width="20" height="20" rx="5" fill="#3fb950" fill-opacity="0.47"/>
    <rect x="635" y="120" width="20" height="20" rx="5" fill="#3fb950" fill-opacity="0.47"/>
    <rect x="664" y="120" width="20" height="20" rx="5" fill="#3fb950" fill-opacity="0.7"/>
    <rect x="693" y="120" width="20" height="20" rx="5" fill="#3fb950" fill-opacity="0.09"/>
    <rect x="722" y="120" width="20" height="20" rx="5" fill="#3fb950" fill-opacity="0.09"/>
    <rect x="751" y="120" width="20" height="20" rx="5" fill="#3fb950" fill-opacity="0.09"/>
    <rect x="780" y="120" width="20" height="20" rx="5" fill="#3fb950" fill-opacity="0.47"/>
    <rect x="809" y="120" width="20" height="20" rx="5" fill="#3fb950" fill-opacity="0.7"/>
    <rect x="838" y="120" width="20" height="20" rx="5" fill="#3fb950" fill-opacity="0.09"/>
    <rect x="867" y="120" width="20" height="20" rx="5" fill="#3fb950" fill-opacity="0.47"/>
    <rect x="896" y="120" width="20" height="20" rx="5" fill="#3fb950" fill-opacity="0.26"/>
    <rect x="925" y="120" width="20" height="20" rx="5" fill="#3fb950" fill-opacity="0.09"/>
    <rect x="954" y="120" width="20" height="20" rx="5" fill="#3fb950" fill-opacity="0.7"/>
    <rect x="606" y="149" width="20" height="20" rx="5" fill="#3fb950" fill-opacity="1.0"/>
    <rect x="635" y="149" width="20" height="20" rx="5" fill="#3fb950" fill-opacity="0.09"/>
    <rect x="664" y="149" width="20" height="20" rx="5" fill="#3fb950" fill-opacity="0.09"/>
    <rect x="693" y="149" width="20" height="20" rx="5" fill="#3fb950" fill-opacity="0.09"/>
    <rect x="722" y="149" width="20" height="20" rx="5" fill="#3fb950" fill-opacity="0.09"/>
    <rect x="751" y="149" width="20" height="20" rx="5" fill="#3fb950" fill-opacity="1.0"/>
    <rect x="780" y="149" width="20" height="20" rx="5" fill="#3fb950" fill-opacity="0.26"/>
    <rect x="809" y="149" width="20" height="20" rx="5" fill="#3fb950" fill-opacity="0.26"/>
    <rect x="838" y="149" width="20" height="20" rx="5" fill="#3fb950" fill-opacity="0.09"/>
    <rect x="867" y="149" width="20" height="20" rx="5" fill="#3fb950" fill-opacity="1.0"/>
    <rect x="896" y="149" width="20" height="20" rx="5" fill="#3fb950" fill-opacity="0.26"/>
    <rect x="925" y="149" width="20" height="20" rx="5" fill="#3fb950" fill-opacity="1.0"/>
    <rect x="954" y="149" width="20" height="20" rx="5" fill="#3fb950" fill-opacity="0.09"/>
    <rect x="606" y="178" width="20" height="20" rx="5" fill="#3fb950" fill-opacity="0.47"/>
    <rect x="635" y="178" width="20" height="20" rx="5" fill="#3fb950" fill-opacity="0.47"/>
    <rect x="664" y="178" width="20" height="20" rx="5" fill="#3fb950" fill-opacity="0.26"/>
    <rect x="693" y="178" width="20" height="20" rx="5" fill="#3fb950" fill-opacity="0.09"/>
    <rect x="722" y="178" width="20" height="20" rx="5" fill="#3fb950" fill-opacity="0.47"/>
    <rect x="751" y="178" width="20" height="20" rx="5" fill="#3fb950" fill-opacity="0.09"/>
    <rect x="780" y="178" width="20" height="20" rx="5" fill="#3fb950" fill-opacity="0.26"/>
    <rect x="809" y="178" width="20" height="20" rx="5" fill="#3fb950" fill-opacity="0.7"/>
    <rect x="838" y="178" width="20" height="20" rx="5" fill="#3fb950" fill-opacity="0.09"/>
    <rect x="867" y="178" width="20" height="20" rx="5" fill="#3fb950" fill-opacity="0.09"/>
    <rect x="896" y="178" width="20" height="20" rx="5" fill="#3fb950" fill-opacity="0.47"/>
    <rect x="925" y="178" width="20" height="20" rx="5" fill="#3fb950" fill-opacity="0.09"/>
    <rect x="954" y="178" width="20" height="20" rx="5" fill="#3fb950" fill-opacity="1.0"/>
    <rect x="606" y="207" width="20" height="20" rx="5" fill="#3fb950" fill-opacity="0.7"/>
    <rect x="635" y="207" width="20" height="20" rx="5" fill="#3fb950" fill-opacity="0.09"/>
    <rect x="664" y="207" width="20" height="20" rx="5" fill="#3fb950" fill-opacity="0.26"/>
    <rect x="693" y="207" width="20" height="20" rx="5" fill="#3fb950" fill-opacity="0.09"/>
    <rect x="722" y="207" width="20" height="20" rx="5" fill="#3fb950" fill-opacity="1.0"/>
    <rect x="751" y="207" width="20" height="20" rx="5" fill="#3fb950" fill-opacity="0.26"/>
    <rect x="780" y="207" width="20" height="20" rx="5" fill="#3fb950" fill-opacity="0.26"/>
    <rect x="809" y="207" width="20" height="20" rx="5" fill="#3fb950" fill-opacity="0.09"/>
    <rect x="838" y="207" width="20" height="20" rx="5" fill="#3fb950" fill-opacity="0.47"/>
    <rect x="867" y="207" width="20" height="20" rx="5" fill="#3fb950" fill-opacity="0.47"/>
    <rect x="896" y="207" width="20" height="20" rx="5" fill="#3fb950" fill-opacity="0.09"/>
    <rect x="925" y="207" width="20" height="20" rx="5" fill="#3fb950" fill-opacity="0.09"/>
    <rect x="954" y="207" width="20" height="20" rx="5" fill="#3fb950" fill-opacity="0.47"/>
  </g>

  <text x="64" y="80" font-family="ui-monospace, SFMono-Regular, Menlo, Consolas, 'Liberation Mono', monospace" font-size="15" letter-spacing="1.5" fill="#56d364">// github.com/MehemudAzad</text>

  <text x="61" y="140" font-family="-apple-system, BlinkMacSystemFont, 'Segoe UI', Helvetica, Arial, sans-serif" font-size="58" font-weight="800" letter-spacing="-1.5" fill="#e6edf3">MEHEMUD AZAD</text>
  <rect x="64" y="158" width="128" height="5" rx="2.5" fill="#3fb950"/>

  <text x="64" y="196" font-family="ui-monospace, SFMono-Regular, Menlo, Consolas, 'Liberation Mono', monospace" font-size="16.5" fill="#8b949e">AI research &#8212; agentic systems, VLMs &amp; NLP</text>
  <text x="64" y="223" font-family="ui-monospace, SFMono-Regular, Menlo, Consolas, 'Liberation Mono', monospace" font-size="16.5" fill="#8b949e">DevOps &amp; backend background  &#183;  BUET  &#183;  Dhaka</text>
</svg>
